#!OML:ASF G:\JayActor3\Patient Classification 1\Patient 1\Session 5\male.ASF
:FULLY-SPECIFIED
:DEGREES
764
root -9.80978 14.5478 -4.43243 89.6104 89.3327 438.919
lowerback 32.9832 -1.71149 0.701876
upperback 6.91031 -1.30119 -1.11254
thorax -9.32877 -0.30284 -1.12203
lowerneck -3.74822 0.293533 1.95561
upperneck -9.40344 0.599026 0.478224
head -2.31204 0.31279 -0.187597
rclavicle 1.39149e-015 -6.36111e-015
rhumerus -20.8566 6.85155 -86.1084
rradius 48.6168
rwrist -3.39974
rhand -20.2463 -8.94028
rfingers 7.12502
rthumb 6.10201 -38.8324
lclavicle 1.39149e-015 -6.36111e-015
lhumerus -20.2017 -7.91985 83.1378
lradius 41.7343
lwrist 26.1649
lhand -18.6306 13.5233
lfingers 7.12502
lthumb 7.66172 43.3645
rfemur -42.9909 -3.04622 26.2457
rtibia 83.7613
rfoot -35.8996 -9.45682
rtoes -19.1625
lfemur -66.5771 1.16788 -24.1188
ltibia 53.2349
lfoot 5.81179 5.6658
ltoes -4.60863
765
root -9.93231 14.5592 -4.40562 104.7 89.3036 454.069
lowerback 33.0464 -1.76122 0.69304
upperback 6.94146 -1.35731 -1.0954
thorax -9.31956 -0.325696 -1.07828
lowerneck -3.72367 0.289283 1.97368
upperneck -9.3813 0.592375 0.480367
head -2.30907 0.308433 -0.189916
rclavicle -7.95139e-016 3.63776e-014
rhumerus -20.7353 6.87836 -86.1156
rradius 48.5541
rwrist -3.3464
rhand -20.2483 -8.95052
rfingers 7.12502
rthumb 6.10007 -38.8427
lclavicle -7.95139e-016 3.63776e-014
lhumerus -20.1619 -7.88186 83.1433
lradius 41.6406
lwrist 26.1529
lhand -18.6702 13.526
lfingers 7.12502
lthumb 7.6235 43.3686
rfemur -43.3048 -3.26111 26.4318
rtibia 83.4598
rfoot -36.0501 -9.55411
rtoes -18.1685
lfemur -66.6842 1.21743 -24.0141
ltibia 52.5366
lfoot 7.30224 5.17172
ltoes -5.69936
766
root -10.0544 14.5703 -4.37809 118.83 89.2396 468.224
lowerback 33.0667 -1.80675 0.68831
upperback 6.96832 -1.40791 -1.07113
thorax -9.29807 -0.346863 -1.03153
lowerneck -3.71526 0.277658 1.99045
upperneck -9.34025 0.575586 0.492114
head -2.29712 0.298896 -0.18877
rclavicle -1.49089e-014 -3.49861e-014
rhumerus -20.6285 6.88591 -86.1194
rradius 48.507
rwrist -3.29632
rhand -20.289 -8.90979
rfingers 7.12502
rthumb 6.06078 -38.8031
lclavicle -1.49089e-014 -3.49861e-014
lhumerus -20.121 -7.85747 83.1534
lradius 41.5485
lwrist 26.1398
lhand -18.6733 13.5129
lfingers 7.12502
lthumb 7.62051 43.3556
rfemur -43.6357 -3.47478 26.648
rtibia 83.1229
rfoot -36.2275 -9.67353
rtoes -17.0957
lfemur -66.8525 1.30152 -23.9249
ltibia 51.8794
lfoot 8.7927 4.68553
ltoes -6.73511
767
root -10.1754 14.5818 -4.34935 131.66 89.1448 481.062
lowerback 33.0623 -1.84887 0.68722
upperback 6.99262 -1.45288 -1.03586
thorax -9.26934 -0.365973 -0.977372
lowerneck -3.7228 0.259386 1.99915
upperneck -9.28336 0.550079 0.516554
head -2.27723 0.285071 -0.182084
rclavicle -8.94531e-015 -3.77691e-014
rhumerus -20.5461 6.88102 -86.1193
rradius 48.4881
rwrist -3.25439
rhand -20.3037 -8.89423
rfingers 7.12502
rthumb 6.04666 -38.7879
lclavicle -8.94531e-015 -3.77691e-014
lhumerus -20.0788 -7.84482 83.1692
lradius 41.4569
lwrist 26.1246
lhand -18.646 13.5035
lfingers 7.12502
lthumb 7.64682 43.3452
rfemur -43.96 -3.67193 26.8963
rtibia 82.7537
rfoot -36.4145 -9.83912
rtoes -16.027
lfemur -67.0546 1.41247 -23.834
ltibia 51.2646
lfoot 10.2398 4.24587
ltoes -7.59023
768
root -10.2952 14.5935 -4.32007 142.171 89.0271 491.573
lowerback 33.051 -1.88455 0.691674
upperback 7.01198 -1.48807 -0.994821
thorax -9.2431 -0.381031 -0.923751
lowerneck -3.74043 0.234612 2.00122
upperneck -9.21692 0.516128 0.551033
head -2.25252 0.267087 -0.170999
rclavicle 4.57205e-015 2.24627e-014
rhumerus -20.4962 6.85967 -86.1181
rradius 48.5013
rwrist -3.22905
rhand -20.3077 -8.88923
rfingers 7.12502
rthumb 6.04275 -38.7831
lclavicle 4.57205e-015 2.24627e-014
lhumerus -20.0429 -7.85373 83.1898
lradius 41.3713
lwrist 26.1084
lhand -18.5902 13.4949
lfingers 7.12502
lthumb 7.70071 43.3347
rfemur -44.2725 -3.83247 27.1615
rtibia 82.3647
rfoot -36.5955 -10.027
rtoes -14.9572
lfemur -67.2725 1.54651 -23.7329
ltibia 50.7006
lfoot 11.5697 3.88727
ltoes -8.3283
769
root -10.4135 14.6048 -4.29111 150.226 88.9035 499.619
lowerback 33.0289 -1.91091 0.701031
upperback 7.02568 -1.51097 -0.95234
thorax -9.21867 -0.390982 -0.875832
lowerneck -3.75728 0.204182 2.00246
upperneck -9.15338 0.474825 0.588014
head -2.22898 0.245411 -0.158972
rclavicle 2.94201e-014 4.11484e-014
rhumerus -20.4778 6.82847 -86.1158
rradius 48.5402
rwrist -3.21767
rhand -20.3004 -8.89521
rfingers 7.12502
rthumb 6.04976 -38.7888
lclavicle 2.94201e-014 4.11484e-014
lhumerus -20.0174 -7.8792 83.213
lradius 41.2917
lwrist 26.0908
lhand -18.5138 13.4584
lfingers 7.12502
lthumb 7.77446 43.2955
rfemur -44.5929 -3.94047 27.4303
rtibia 81.9778
rfoot -36.7464 -10.2292
rtoes -13.923
lfemur -67.5067 1.69568 -23.6088
ltibia 50.2078
lfoot 12.6789 3.64263
ltoes -8.95868
770
root -10.53 14.6155 -4.26271 156.242 88.7818 505.63
lowerback 33.0106 -1.92793 0.709263
upperback 7.03666 -1.52306 -0.911929
thorax -9.19857 -0.39604 -0.833441
lowerneck -3.77647 0.17164 1.99853
upperneck -9.09291 0.431152 0.62918
head -2.20608 0.22269 -0.144776
rclavicle 1.53064e-014 7.35503e-015
rhumerus -20.4892 6.78988 -86.1142
rradius 48.6054
rwrist -3.22598
rhand -20.2565 -8.9271
rfingers 7.12502
rthumb 6.09222 -38.8195
lclavicle 1.53064e-014 7.35503e-015
lhumerus -20.0049 -7.91942 83.2384
lradius 41.2217
lwrist 26.0713
lhand -18.4418 13.4303
lfingers 7.12502
lthumb 7.8439 43.2648
rfemur -44.9089 -3.99753 27.6896
rtibia 81.6084
rfoot -36.8632 -10.4403
rtoes -12.9485
lfemur -67.7354 1.86557 -23.4738
ltibia 49.817
lfoot 13.4558 3.47612
ltoes -9.61388
